<svg width="172" height="140" viewBox="0 0 172 140" fill="none" xmlns="http://www.w3.org/2000/svg">
<g clip-path="url(#clip0_461_560)">
<path d="M85.906 53.9313C100.833 53.9313 112.976 41.8351 112.976 26.9657C112.976 18.4236 108.966 10.7955 102.726 5.85348L102.731 5.84381C102.731 5.84381 102.704 5.82689 102.67 5.80996C98.0562 2.1736 92.2311 0 85.906 0C74.0496 0 63.9479 7.6354 60.2951 18.2278C60.2029 18.4212 60.1689 18.5687 60.1543 18.646C59.3 21.2669 58.834 24.0619 58.834 26.9657C58.834 41.8351 70.9768 53.9313 85.9036 53.9313H85.906ZM104.949 44.4149C102.753 41.2016 97.1169 39.5116 93.816 38.7693C91.8306 38.3245 90.6777 36.9802 90.7311 35.1789C90.7773 33.6074 91.7748 32.2195 93.0029 32.0189C94.7335 31.7311 96.6023 33.4695 98.578 35.3046C99.7309 36.3757 100.923 37.4831 102.19 38.2906C104.605 39.8332 106.733 40.3989 107.869 40.6045C107.015 41.9633 106.037 43.2398 104.952 44.4149H104.949ZM108.328 39.8428C107.41 39.705 105.175 39.2191 102.634 37.5967C101.43 36.8279 100.267 35.7471 99.1411 34.7026C97.0125 32.7249 95.0029 30.8559 92.8694 31.2041C91.2384 31.47 89.9642 33.1673 89.9035 35.1523C89.8525 36.8738 90.8064 38.9386 93.634 39.5721C99.0513 40.7882 102.913 42.7611 104.362 45.0266C103.51 45.8898 102.6 46.6925 101.636 47.4299C101.636 47.0382 101.563 46.6634 101.406 46.3008C100.476 44.1562 96.8669 42.7563 91.0588 40.648C86.9861 39.1707 85.8478 37.4589 85.6099 36.2814C85.3672 35.0725 86.0007 34.1078 86.4133 33.7282C87.7458 32.5024 88.5128 30.8269 89.7287 27.529C90.1049 26.5087 90.6195 25.9284 91.2603 25.8003C92.2093 25.6117 93.3549 26.4217 94.1121 27.2413C95.1461 28.3607 97.5635 30.9792 100.796 33.7839C103.321 35.9744 107.84 37.0334 109.587 37.3767C109.211 38.2229 108.791 39.0426 108.33 39.838L108.328 39.8428ZM109.915 36.603C108.388 36.3104 103.774 35.2805 101.338 33.1673C98.1387 30.3917 95.7407 27.7974 94.7189 26.6876C94.2772 26.2113 92.7141 24.6784 91.0976 24.9976C90.1559 25.1838 89.4326 25.9405 88.9521 27.2486C87.7822 30.4159 87.0589 32.0164 85.8526 33.1262C85.1828 33.7427 84.5056 34.9831 84.8017 36.4458C85.0808 37.8288 86.3429 39.8163 90.7773 41.4241C96.3985 43.4647 99.8668 44.8308 100.648 46.6296C100.845 47.0817 100.86 47.5725 100.699 48.1165C99.7649 48.7669 98.7867 49.3569 97.7698 49.8815C97.1848 46.0179 92.9301 44.3085 88.804 42.6523C84.8041 41.0469 81.0251 39.531 81.0251 36.2742C81.0251 33.0174 82.3066 31.603 83.792 30.1281C85.3527 28.5783 87.122 26.823 87.122 22.3815C87.122 20.7108 86.7531 19.4415 86.156 18.4695C88.6001 19.6059 92.0394 21.5256 95.6096 24.5479C96.2868 25.1209 96.9227 25.6673 97.5295 26.1871C102.323 30.2974 105.26 32.8167 109.721 32.8167C110.177 32.8167 110.65 32.7877 111.141 32.7345C110.835 34.0643 110.422 35.3554 109.917 36.6006L109.915 36.603ZM111.369 22.3138C110.226 22.4686 109.655 22.1978 106.842 19.1078C104.828 16.8956 102.517 16.9898 100.658 17.0672C99.1193 17.1301 98.1484 17.1277 97.5902 16.2742C97.0416 15.44 96.8815 14.6518 97.1096 13.9362C97.4251 12.9449 98.5222 12.0358 100.194 11.3781C102.376 10.5198 105.265 10.9429 106.33 11.1436C108.837 14.3496 110.602 18.1576 111.366 22.3114L111.369 22.3138ZM103.762 8.31238C104.386 8.90474 104.978 9.52853 105.541 10.1789C104.092 9.98549 101.794 9.8646 99.8935 10.6117C97.9567 11.3733 96.7237 12.4371 96.3232 13.6871C96.015 14.6518 96.2091 15.6746 96.8984 16.7263C97.7431 18.015 99.1751 17.9545 100.692 17.8917C102.464 17.8192 104.476 17.7345 106.228 19.6615C108.83 22.5218 109.733 23.1746 110.886 23.1746C111.08 23.1746 111.286 23.1552 111.505 23.1238C111.694 24.3762 111.791 25.6601 111.791 26.9633C111.791 27.3017 111.782 27.6378 111.769 27.9739C109.095 27.9739 107.131 27.089 105.289 25.0725C103.493 23.1069 102.097 21.8545 99.8789 20.8752C97.6581 19.8936 90.8476 16.3661 88.8404 14.6954C88.4108 14.3375 87.9278 13.808 88.0637 13.3075C88.2264 12.6983 89.2579 12.1422 90.6923 11.8907C93.7335 11.3564 95.1922 10.4811 96.7383 9.55513C97.2844 9.22872 97.8499 8.88781 98.4931 8.56383C100.262 7.67408 102.748 8.08511 103.762 8.30996V8.31238ZM102.602 7.27515C101.299 7.12041 99.544 7.11315 98.1217 7.82882C97.4494 8.16731 96.8717 8.51306 96.3135 8.84913C94.8354 9.73404 93.4398 10.573 90.5515 11.0808C88.7215 11.4023 87.5225 12.1373 87.2652 13.0972C87.1293 13.6049 87.1997 14.4052 88.3113 15.3312C90.4083 17.0769 97.2285 20.6093 99.5464 21.632C101.631 22.5532 102.959 23.7476 104.68 25.631C106.658 27.795 108.852 28.7863 111.728 28.8008C111.663 29.722 111.551 30.6286 111.391 31.5208C106.362 32.2074 103.622 29.8598 98.3013 25.2974C97.6945 24.7776 97.0562 24.2287 96.3766 23.6533C89.8792 18.1504 83.9474 16.2403 83.0323 15.9671C82.3091 15.6746 81.5566 15.4691 80.8285 15.3119C79.8844 15.1088 78.8625 14.9637 77.865 14.8622C81.9426 13.6412 85.3624 11.4894 88.2822 9.64942C90.9641 7.95938 93.282 6.50145 95.2674 6.29352C99.7188 5.83172 101.641 6.61267 102.022 6.79642C102.219 6.95358 102.413 7.11315 102.605 7.27515H102.602ZM85.906 1.17747C90.8986 1.17747 95.566 2.59429 99.5246 5.04352C98.4105 4.94439 96.9713 4.9323 95.1412 5.12331C92.8816 5.35783 90.4545 6.88588 87.6463 8.65571C83.5566 11.2331 78.4669 14.4391 72.0229 14.6494C66.8216 14.8211 63.8994 15.631 62.2562 16.4821C66.2974 7.4734 75.3772 1.17747 85.906 1.17747ZM61.38 18.7065C61.6713 18.1625 63.3411 16.1122 72.0642 15.8245C72.1783 15.8196 72.2899 15.8148 72.4016 15.8075C72.4477 15.8075 77.1466 15.7181 80.5737 16.4604C84.3842 17.2848 85.94 19.0015 85.94 22.3815C85.94 26.3322 84.491 27.7708 82.9571 29.294C81.4256 30.8148 79.8407 32.3864 79.8407 36.2742C79.8407 40.162 84.1706 42.0648 88.3598 43.7452C92.4787 45.3965 96.3766 46.9633 96.6387 50.4304C93.367 51.9222 89.7336 52.7539 85.906 52.7539C84.6245 52.7539 83.3649 52.6596 82.1319 52.4782C83.7945 47.6813 81.0081 44.9396 78.3043 42.2848C76.5471 40.5585 74.8869 38.9265 74.4865 36.7892C73.9671 34.0087 75.9961 32.2921 78.1417 30.4763C80.2242 28.7137 82.377 26.8931 82.377 23.9724C82.377 22.8796 81.9862 21.9439 81.2193 21.1896C79.6514 19.6518 76.5277 18.9144 71.938 18.9773C67.0037 19.0522 62.7319 19.6929 60.982 19.9927C61.1033 19.56 61.2368 19.132 61.38 18.7089V18.7065ZM60.7514 20.868C62.1543 20.6165 66.6639 19.8791 71.9501 19.7993C76.2461 19.7389 79.2557 20.4159 80.6392 21.7747C81.2508 22.3767 81.5494 23.0948 81.5494 23.97C81.5494 26.5087 79.6344 28.131 77.6053 29.8453C75.3724 31.7336 73.0617 33.6896 73.6709 36.9391C74.12 39.3327 75.95 41.1315 77.7218 42.8699C80.3771 45.4787 82.8891 47.9473 81.3018 52.3428C78.0762 51.765 75.0568 50.5875 72.3627 48.9338C74.3311 46.4168 72.2681 43.1214 70.8701 40.8898L70.5205 40.3288C69.5206 38.7016 68.7463 35.8873 69.4089 33.5493C69.8531 31.9778 70.8846 30.7713 72.4744 29.9662C75.234 28.5663 76.7388 26.4749 76.3116 24.6373C75.9063 22.8941 73.9209 21.869 70.8652 21.823C65.8314 21.7505 61.9261 22.72 60.2927 23.2084C60.4092 22.4154 60.5621 21.6368 60.749 20.868H60.7514ZM60.1786 24.1078C61.465 23.7016 65.5644 22.5604 70.8531 22.6451C73.4574 22.6838 75.1976 23.4961 75.5058 24.8211C75.8408 26.2548 74.4719 28.0247 72.1006 29.2287C70.2973 30.1451 69.125 31.5208 68.6128 33.3245C67.7731 36.2839 68.9745 39.3907 69.8143 40.7592L70.1662 41.325C71.5181 43.484 73.3409 46.3951 71.6589 48.484C69.9283 47.3428 68.3434 46.0034 66.9357 44.4923C67.3459 44.1804 67.6396 43.7814 67.8046 43.293C68.3337 41.7408 67.4357 39.6518 66.591 38.1722C65.8386 36.8569 64.4795 33.4816 68.1007 30.5343C70.2341 28.7984 70.3264 27.4879 70.0254 26.6973C69.557 25.4618 67.8119 24.7776 65.3532 24.867C62.7295 24.9637 60.9965 25.7302 60.0257 26.3322C60.0427 25.5827 60.0961 24.8404 60.1762 24.1078H60.1786ZM66.2731 43.7524C62.4941 39.3738 60.164 33.7234 60.0257 27.5411C60.6179 27.0769 62.3339 25.9695 65.3921 25.8559C67.3459 25.7834 68.7973 26.2524 69.0983 27.0455C69.3555 27.7273 68.7633 28.7186 67.4745 29.7679C63.147 33.2882 65.045 37.4662 65.7294 38.663C66.7828 40.5029 67.1857 42.0358 66.8653 42.9739C66.7561 43.2955 66.5595 43.5517 66.2707 43.75L66.2731 43.7524Z" fill="#05717B"/>
<path d="M123.619 100.749C123.794 100.824 123.966 100.856 124.177 100.844C124.388 100.832 124.594 100.735 124.713 100.6C124.791 100.469 124.825 100.338 124.818 100.213C124.81 100.087 124.762 100.005 124.716 99.9225C124.667 99.8403 124.577 99.7605 124.534 99.7219C124.352 99.5212 124.177 99.4462 123.966 99.4607C123.796 99.4704 123.633 99.5647 123.517 99.7412C123.4 99.9177 123.325 100.092 123.337 100.302C123.349 100.512 123.442 100.633 123.619 100.749Z" fill="#05717B"/>
<path d="M28.5615 109.4C29.8357 108.704 31.4837 107.822 32.906 108.189C32.8113 108.806 32.1415 109.359 31.7143 109.872C30.1512 111.475 28.1076 113.254 26.445 114.582C26.445 114.582 26.4232 114.591 26.411 114.594C26.1756 114.659 26.0324 114.901 26.0882 115.138C26.1538 115.43 26.4717 115.554 26.7411 115.455C27.1028 115.389 27.4231 115.244 27.7071 115.065C28.1294 114.937 28.5663 114.845 28.9935 114.761C30.6148 114.376 32.1123 114.969 33.7506 114.959C34.588 114.952 35.4059 114.877 36.2384 114.666C36.3865 114.628 36.4811 114.48 36.4472 114.328C36.4132 114.168 36.2457 114.072 36.0879 114.115C33.7191 114.792 31.3138 113.607 28.928 113.985C30.0978 112.822 31.2022 111.603 32.2094 110.285C35.5516 106.076 30.4182 107.928 28.2411 108.753C27.729 108.934 28.1052 109.691 28.559 109.396L28.5615 109.4Z" fill="#05717B"/>
<path d="M149.506 102.979L149.338 103.032C145.596 104.311 137.926 113.005 135.137 113.172L135.052 113.177C134.627 113.16 134.302 112.715 134.254 111.871C134.2 110.986 134.455 109.577 135.363 107.705C136.118 106.139 136.841 104.744 137.584 103.685L137.618 103.557C137.603 103.305 137.203 102.988 136.907 103.008C136.78 103.015 136.698 103.063 136.661 103.148L136.123 104.067C135.251 102.976 134.421 102.56 133.489 102.616C133.237 102.631 132.941 102.647 132.691 102.747C131.591 103.116 130.722 103.731 130.077 104.444C125.424 106.862 121.174 109.374 117.376 112.021C118.128 110.413 119.004 108.755 120.043 106.961C121.082 105.167 122.016 103.76 122.926 102.647L123.002 102.473C122.994 102.348 122.946 102.265 122.812 102.147C122.679 102.028 122.506 101.997 122.38 102.004C122.254 102.012 122.171 102.06 122.091 102.149C121.366 103.046 120.647 104.055 119.936 105.172C117.89 106.634 112.8 108.617 108.691 110.087C108.873 108.175 108.757 106.912 109.012 105.503C109.424 105.309 111.885 103.895 111.82 102.8L111.762 102.551C111.616 102.263 111.356 102.152 111.016 102.171C110.087 102.227 108.626 103.327 108.092 105.048C108.048 105.193 108.012 105.343 107.978 105.496C104.216 106.837 96.6067 115.45 93.8301 115.614L93.7451 115.619C93.3204 115.602 92.9951 115.155 92.9466 114.313C92.8932 113.428 93.148 112.019 94.0558 110.147C94.8106 108.581 95.5339 107.186 96.2766 106.127L96.3106 105.999C96.296 105.747 95.8955 105.43 95.5994 105.45C95.4732 105.457 95.3907 105.505 95.3543 105.59L94.8155 106.509C93.9441 105.418 93.1141 105.002 92.182 105.058C91.9296 105.072 91.6335 105.089 91.3835 105.189C90.1821 105.592 89.2501 106.289 88.5923 107.087C84.3255 109.292 78.9664 108.936 74.219 108.409L74.0297 108.387L74.1874 108.281C78.8523 105.133 82.8668 100.326 84.9274 95.4255C86.2914 92.3936 86.1774 89.7413 84.59 87.5411C80.3207 81.6247 66.4303 80.3505 59.9427 80.9816C55.336 81.4772 44.3217 83.3631 41.5718 90.1184C40.8267 92.4323 41.1981 95.087 42.5427 97.0406C43.698 98.7185 45.4406 99.705 47.4527 99.8186C47.5984 99.8307 47.6736 99.7267 47.6833 99.6204C47.693 99.514 47.6372 99.4028 47.4916 99.3883C43.596 99.0619 41.7102 95.5657 41.8607 92.2824C41.8704 90.4859 42.8533 88.6847 44.6251 87.2098C48.2076 84.3544 53.2463 82.6378 60.03 81.9608C66.1367 81.4023 79.7892 82.6885 83.6774 88.1914C85.0391 90.1184 85.1167 92.4057 83.9104 94.9879C81.5124 100.479 77.3038 105.283 72.3671 108.162L72.3452 108.175L72.321 108.17C70.8865 107.95 69.4473 107.609 68.0517 107.278C65.7483 106.734 63.3673 106.17 60.9523 106.129C59.9451 106.141 58.916 106.668 58.3966 107.437C58.1175 107.848 57.8578 108.518 58.1951 109.379C58.7121 110.67 59.9718 111.501 61.9353 111.85C65.4668 112.241 69.3162 111.252 73.0685 108.992L73.0904 108.98H73.1146C79.6144 109.852 84.5366 109.468 88.0851 107.809C87.59 108.646 87.3618 109.533 87.4055 110.283C87.4686 111.335 88.0657 112.103 89.2501 112.033C90.1384 111.98 91.3787 111.443 92.9539 110.123C92.3617 111.552 92.0728 113.133 92.1432 114.313C92.2136 115.493 92.6432 116.313 93.6165 116.255L93.7427 116.248C96.745 115.986 103.06 108.554 107.883 105.989C107.65 107.461 107.742 109.175 107.619 110.566C105.308 111.675 103.762 112.78 102.725 113.9C101.405 115.247 100.929 116.499 100.985 117.427C101.053 118.564 101.944 119.272 103.128 119.202C105.116 119.084 107.861 116.765 108.601 110.679C111.293 109.432 116.638 107.749 119.494 105.88C119.191 106.376 118.89 106.891 118.591 107.425C117.441 109.48 116.492 111.354 115.706 113.09C113.715 114.56 111.536 116.422 109.162 118.634C106.791 120.846 104.563 123.303 102.471 125.919C102 126.538 101.376 127.505 100.563 128.779C99.7498 130.094 98.9877 131.535 98.3566 133.051C97.6843 134.57 97.3834 135.94 97.4562 137.161C97.5096 138.046 97.8057 138.748 98.3882 139.263C98.927 139.78 99.6236 140.034 100.425 139.988C101.776 139.908 103.167 139.023 104.594 137.331C105.98 135.684 107.386 133.615 108.723 131.168C110.063 128.721 111.269 126.199 112.429 123.595C113.589 120.991 114.553 118.651 115.407 116.615C115.999 115.186 116.485 114.057 116.856 113.191C120.655 110.384 124.866 107.701 129.545 105.131C128.946 106.035 128.666 107.019 128.715 107.838C128.778 108.89 129.375 109.659 130.56 109.589C131.448 109.536 132.688 108.999 134.263 107.679C133.671 109.108 133.382 110.689 133.453 111.869C133.523 113.049 133.953 113.868 134.926 113.81L135.052 113.803C135.254 113.786 135.47 113.735 135.7 113.656C135.341 113.946 135.004 114.258 134.683 114.594C134.04 115.29 133.482 116.122 133.256 117.094C132.87 120.276 134.538 121.854 137.399 119.819C138.521 119.098 139.467 118.17 140.44 117.28C140.603 117.125 140.608 116.869 140.45 116.709C140.285 116.538 140.008 116.547 139.851 116.724C138.819 117.705 135.356 121.521 134.12 119.514C133.03 117.275 135.3 114.328 137.322 112.809C137.53 112.674 137.744 112.529 137.962 112.369C137.977 112.36 137.991 112.35 138.006 112.34C138.021 112.333 138.03 112.319 138.042 112.309C141.409 109.86 145.962 105.099 149.574 103.346C149.654 103.257 149.734 103.167 149.731 103.126C149.727 103.042 149.637 102.962 149.511 102.969L149.506 102.979ZM111.082 102.551C111.252 102.541 111.383 102.618 111.439 102.826L111.444 102.911C111.482 103.542 109.558 104.712 109.104 104.952C109.259 104.013 110.449 102.589 111.082 102.553V102.551ZM71.1559 108.832C69.4837 109.686 67.775 110.319 66.0784 110.718H66.076C65.0979 110.911 64.2192 111.008 63.4256 111.008C62.195 111.008 61.1635 110.776 60.2703 110.309C59.5932 109.973 59.0762 109.345 58.9864 108.748C58.9257 108.337 59.0641 107.955 59.3893 107.645C60.6344 106.659 62.3892 106.995 63.9377 107.292C64.3309 107.367 64.7022 107.44 65.059 107.488C66.6658 107.851 68.8041 108.315 71.139 108.697L71.3501 108.731L71.1608 108.827L71.1559 108.832ZM89.17 111.499C88.5778 111.535 88.221 111.26 88.1894 110.713C88.153 110.123 88.4443 109.304 89.2258 108.158C90.0438 106.927 91.1214 105.805 92.2646 105.737C92.983 105.694 93.7257 106.073 94.4271 107.13C92.4369 110.039 90.3132 111.431 89.1724 111.499H89.17ZM103.094 118.704C102.757 118.723 102.454 118.615 102.187 118.419C101.832 118.187 101.602 117.863 101.57 117.314C101.529 116.639 101.895 115.646 103.005 114.354C104.157 113.061 106.123 111.888 107.568 111.209C107.327 114.985 104.954 118.59 103.094 118.702V118.704ZM114.075 117.123C113.371 118.854 112.521 120.933 111.519 123.361C110.521 125.829 109.393 128.262 108.179 130.66C106.922 133.058 105.645 135.121 104.344 136.763C103.041 138.404 101.779 139.282 100.553 139.354C99.9197 139.393 99.3979 139.212 98.9488 138.774C98.4561 138.339 98.2086 137.761 98.1673 137.045C98.0994 135.909 98.4052 134.623 99.0411 133.189C99.677 131.758 100.359 130.406 101.133 129.134C101.866 127.906 102.451 127.028 102.886 126.494C104.735 124.059 106.805 121.782 109.012 119.664C111.218 117.546 113.237 115.822 115.147 114.439C114.885 115.005 114.553 115.868 114.077 117.123H114.075ZM130.48 109.05C129.887 109.086 129.531 108.81 129.499 108.264C129.463 107.674 129.754 106.854 130.535 105.708C131.353 104.478 132.431 103.356 133.574 103.288C134.293 103.245 135.035 103.624 135.737 104.681C133.746 107.589 131.623 108.982 130.482 109.05H130.48Z" fill="#05717B"/>
<path d="M67.3092 91.1582H67.314C67.5883 90.9962 67.7363 90.7569 67.7315 90.4788C67.7291 90.1863 67.5495 89.8913 67.2873 89.7487C67.0398 89.6133 66.7606 89.6278 66.4985 89.7873C62.1734 93.0973 59.0885 97.7322 56.1056 102.215L55.7076 102.812C54.7853 104.239 53.7125 106.006 52.5766 107.877C46.8049 117.394 38.0818 131.775 29.3467 133.6C26.7351 134.125 23.922 132.979 22.1842 130.68C22.1818 130.677 22.1794 130.675 22.1745 130.675C22.1697 130.675 22.1672 130.675 22.1624 130.68C22.1478 130.689 22.1527 130.694 22.1551 130.696C22.8978 131.915 23.9609 132.892 25.2327 133.525C28.7326 135.111 32.8368 133.825 37.429 129.705C41.2929 126.24 44.7273 121.487 47.0015 118.344C47.2296 118.027 47.4481 117.727 47.6544 117.442C49.55 114.77 51.3315 111.949 53.0572 109.222C55.7003 105.039 58.4308 100.713 61.6346 96.8304C63.4913 94.6084 65.2 92.65 67.3092 91.1582Z" fill="#05717B"/>
<path d="M3.45621 66.864H0V76.6101H1.41258V72.4999H3.28874C5.35907 72.4999 6.78379 71.54 6.78379 69.6034C6.78379 67.8045 5.33966 66.864 3.45621 66.864ZM3.22078 71.3877H1.41258V67.9738H3.24748C4.49016 67.9738 5.34208 68.4888 5.34208 69.63C5.34208 70.9598 4.49502 71.3877 3.22321 71.3877H3.22078Z" fill="#05717B"/>
<path d="M26.5669 73.8901C26.5669 72.5361 25.9504 71.6029 23.4407 70.8751C21.8534 70.4158 21.3316 70.0845 21.3316 69.2068C21.3316 68.3292 21.8947 67.8239 23.0257 67.8239C24.2441 67.8239 24.7926 68.4404 24.9407 69.3833H26.3339C26.2246 67.9714 25.2805 66.7383 23.0548 66.7383C21.1665 66.7383 19.8996 67.7368 19.8996 69.335C19.8996 70.7349 20.7078 71.4385 22.8679 72.0598C24.5815 72.5652 25.1154 73.0052 25.1154 74.0473C25.1154 75.0893 24.3922 75.6333 23.1907 75.6333C21.9893 75.6333 21.1811 75.0289 20.9942 73.8369H19.5938C19.7345 75.6406 21.0088 76.7238 23.1276 76.7238C25.4164 76.7238 26.5669 75.5076 26.5669 73.8925V73.8901Z" fill="#05717B"/>
<path d="M42.1058 72.7973V76.6101H43.5111V72.7876C43.5111 72.6764 43.5232 72.6063 43.5742 72.5386L46.8945 66.864H45.4091C44.6178 68.3171 43.6324 70.0628 42.8752 71.4651C42.4528 70.672 41.1665 68.3824 40.3485 66.864H38.7539L42.0257 72.5265C42.0742 72.5942 42.1058 72.7006 42.1058 72.7973Z" fill="#05717B"/>
<path d="M63.0063 67.8603C64.4917 67.8603 65.0669 68.692 65.3145 69.7679H66.7174C66.5402 68.1504 65.4577 66.7288 63.0573 66.7288C60.1739 66.7288 58.8535 69.0813 58.8535 71.6828C58.8535 74.5721 59.9821 76.7529 62.9845 76.7529C65.4019 76.7529 66.4722 75.2998 66.7683 73.7307H65.3679C65.0791 74.7607 64.4941 75.6262 63.0209 75.6262C60.936 75.6262 60.3098 73.6944 60.3098 71.6828C60.3098 69.6712 61.0743 67.8603 63.0087 67.8603H63.0063Z" fill="#05717B"/>
<path d="M87.53 76.6101V66.864H86.1174V70.9162H81.5884V66.864H80.1855V76.6101H81.5884V72.0744H86.1174V76.6101H87.53Z" fill="#05717B"/>
<path d="M101.232 71.6804C101.232 74.5721 102.626 76.7505 105.48 76.7505C108.482 76.7505 109.844 74.4778 109.844 71.678C109.844 68.8782 108.441 66.7288 105.604 66.7288C102.606 66.7288 101.232 69.1586 101.232 71.6828V71.6804ZM108.405 71.6852C108.405 73.929 107.57 75.6238 105.553 75.6238C103.536 75.6238 102.694 73.8854 102.694 71.6635C102.694 69.56 103.562 67.853 105.548 67.853C107.533 67.853 108.405 69.5407 108.405 71.6852Z" fill="#05717B"/>
<path d="M129.756 75.4665H124.958V66.864H123.553V76.6101H129.57L129.756 75.4665Z" fill="#05717B"/>
<path d="M146.449 66.7288C143.452 66.7288 142.078 69.1586 142.078 71.6828C142.078 74.5745 143.471 76.7529 146.326 76.7529C149.328 76.7529 150.69 74.4802 150.69 71.6804C150.69 68.8806 149.287 66.7312 146.449 66.7312V66.7288ZM146.398 75.6262C144.471 75.6262 143.539 73.8878 143.539 71.6659C143.539 69.5624 144.408 67.8555 146.394 67.8555C148.379 67.8555 149.25 69.5431 149.25 71.6877C149.25 73.8322 148.415 75.6262 146.398 75.6262Z" fill="#05717B"/>
<path d="M168.063 72.5073H170.587V72.5653C170.587 74.2602 170.155 75.6262 168.111 75.6262C166.068 75.6262 165.357 73.8371 165.357 71.7916C165.357 69.6156 166.211 67.8603 168.233 67.8603C169.696 67.8603 170.332 68.5977 170.614 69.5697H172C171.708 67.8724 170.495 66.7288 168.301 66.7288C165.444 66.7288 163.9 68.9676 163.9 71.7868C163.9 74.6059 165.204 76.7529 167.844 76.7529C169.255 76.7529 170.25 76.3467 170.779 75.2587C170.801 75.9043 170.842 76.325 170.9 76.6127H171.975V71.325H168.06V72.5097L168.063 72.5073Z" fill="#05717B"/>
</g>
<defs>
<clipPath id="clip0_461_560">
<rect width="172" height="140" fill="white"/>
</clipPath>
</defs>
</svg>
