<svg width="32" height="32" viewBox="0 0 32 32" fill="none" xmlns="http://www.w3.org/2000/svg">
<path d="M7.05715 7.05715C7.57785 6.53645 8.42207 6.53645 8.94277 7.05715L16 14.1143L23.0571 7.05715C23.5778 6.53645 24.4221 6.53645 24.9428 7.05715C25.4635 7.57785 25.4635 8.42207 24.9428 8.94277L17.8856 16L24.9428 23.0571C25.4635 23.5778 25.4635 24.4221 24.9428 24.9428C24.4221 25.4635 23.5778 25.4635 23.0571 24.9428L16 17.8856L8.94277 24.9428C8.42207 25.4635 7.57785 25.4635 7.05715 24.9428C6.53645 24.4221 6.53645 23.5778 7.05715 23.0571L14.1143 16L7.05715 8.94277C6.53645 8.42207 6.53645 7.57785 7.05715 7.05715Z" fill="white"/>
</svg>
