<svg width="24" height="25" viewBox="0 0 24 25" fill="none" xmlns="http://www.w3.org/2000/svg">
<path d="M3 5.5C3 4.39543 3.89543 3.5 5 3.5H9C10.1046 3.5 11 4.39543 11 5.5V9.5C11 10.6046 10.1046 11.5 9 11.5H5C3.89543 11.5 3 10.6046 3 9.5V5.5ZM9 5.5H5V9.5H9V5.5ZM13 5.5C13 4.39543 13.8954 3.5 15 3.5H19C20.1046 3.5 21 4.39543 21 5.5V9.5C21 10.6046 20.1046 11.5 19 11.5H15C13.8954 11.5 13 10.6046 13 9.5V5.5ZM19 5.5H15V9.5H19V5.5ZM3 15.5C3 14.3954 3.89543 13.5 5 13.5H9C10.1046 13.5 11 14.3954 11 15.5V19.5C11 20.6046 10.1046 21.5 9 21.5H5C3.89543 21.5 3 20.6046 3 19.5V15.5ZM9 15.5H5V19.5H9V15.5ZM13 15.5C13 14.3954 13.8954 13.5 15 13.5H19C20.1046 13.5 21 14.3954 21 15.5V19.5C21 20.6046 20.1046 21.5 19 21.5H15C13.8954 21.5 13 20.6046 13 19.5V15.5ZM19 15.5H15V19.5H19V15.5Z" fill="#05717B"/>
</svg>
