<svg width="24" height="25" viewBox="0 0 24 25" fill="none" xmlns="http://www.w3.org/2000/svg">
<path d="M4 7.5C4 6.94772 4.44772 6.5 5 6.5H6C6.55228 6.5 7 6.94772 7 7.5C7 8.05228 6.55228 8.5 6 8.5H5C4.44772 8.5 4 8.05228 4 7.5ZM9 7.5C9 6.94772 9.44772 6.5 10 6.5H19C19.5523 6.5 20 6.94772 20 7.5C20 8.05228 19.5523 8.5 19 8.5H10C9.44772 8.5 9 8.05228 9 7.5ZM4 12.5C4 11.9477 4.44772 11.5 5 11.5H6C6.55228 11.5 7 11.9477 7 12.5C7 13.0523 6.55228 13.5 6 13.5H5C4.44772 13.5 4 13.0523 4 12.5ZM9 12.5C9 11.9477 9.44772 11.5 10 11.5H19C19.5523 11.5 20 11.9477 20 12.5C20 13.0523 19.5523 13.5 19 13.5H10C9.44772 13.5 9 13.0523 9 12.5ZM4 17.5C4 16.9477 4.44772 16.5 5 16.5H6C6.55228 16.5 7 16.9477 7 17.5C7 18.0523 6.55228 18.5 6 18.5H5C4.44772 18.5 4 18.0523 4 17.5ZM9 17.5C9 16.9477 9.44772 16.5 10 16.5H19C19.5523 16.5 20 16.9477 20 17.5C20 18.0523 19.5523 18.5 19 18.5H10C9.44772 18.5 9 18.0523 9 17.5Z" fill="#1A1A1A"/>
</svg>
