<svg width="18" height="18" viewBox="0 0 18 18" fill="none" xmlns="http://www.w3.org/2000/svg">
<path d="M2.19416 2.33341H5.93578L7.14179 5.34844L5.20439 6.64004C4.97256 6.79459 4.83331 7.05479 4.83331 7.33341C4.83542 7.41144 4.83331 7.33425 4.83331 7.33425L4.83331 7.33512L4.83331 7.33699L4.83334 7.34119L4.83346 7.35147C4.83359 7.35915 4.8338 7.36848 4.83415 7.37941C4.83485 7.40125 4.83613 7.4295 4.83841 7.46372C4.84297 7.53213 4.85157 7.62461 4.86772 7.73772C4.90002 7.9638 4.96271 8.27351 5.08441 8.6386C5.32877 9.37169 5.80892 10.3209 6.74405 11.256C7.67919 12.1911 8.62836 12.6713 9.36145 12.9157C9.72655 13.0373 10.0363 13.1 10.2623 13.1323C10.3754 13.1485 10.4679 13.1571 10.5363 13.1616C10.5706 13.1639 10.5988 13.1652 10.6206 13.1659C10.6316 13.1663 10.6409 13.1665 10.6486 13.1666L10.6589 13.1667L10.6631 13.1667L10.6649 13.1667L10.6658 13.1667C10.6658 13.1667 10.7588 13.1616 10.6666 13.1667C10.9823 13.1667 11.2708 12.9884 11.412 12.7061L11.9701 11.5899L15.6666 12.206V15.8059C13.9074 16.0603 9.15615 16.3111 5.42256 12.5775C1.68898 8.84391 1.93974 4.09266 2.19416 2.33341ZM6.56135 7.73849L8.06629 6.73519C8.72207 6.29801 8.98196 5.46123 8.68925 4.72945L7.48324 1.71443C7.23014 1.08167 6.61729 0.666748 5.93578 0.666748H2.15062C1.39353 0.666748 0.680881 1.19272 0.556594 2.01417C0.273835 3.883 -0.111037 9.40091 4.24405 13.756C8.59914 18.1111 14.1171 17.7262 15.9859 17.4435C16.8073 17.3192 17.3333 16.6065 17.3333 15.8494V12.206C17.3333 11.3913 16.7443 10.696 15.9406 10.562L12.2441 9.94594C11.5224 9.82565 10.8066 10.1901 10.4794 10.8446L10.1906 11.4221C10.0999 11.3998 9.99856 11.3712 9.8885 11.3345C9.37159 11.1622 8.65409 10.809 7.92256 10.0775C7.19103 9.34596 6.83785 8.62847 6.66554 8.11156C6.61898 7.97188 6.58547 7.84629 6.56135 7.73849Z" fill="#05717B"/>
</svg>
