<svg width="32" height="32" viewBox="0 0 32 32" fill="none" xmlns="http://www.w3.org/2000/svg">
<circle cx="16" cy="16" r="16" fill="#068893"/>
<path d="M16 6.5C16.3788 6.5 16.7251 6.714 16.8945 7.05279L19.4734 12.2106L25.144 13.0354C25.5206 13.0902 25.8335 13.354 25.9511 13.716C26.0687 14.078 25.9706 14.4753 25.6981 14.741L21.571 18.7649L22.4994 24.4385C22.5608 24.8135 22.4043 25.1908 22.0957 25.4124C21.787 25.6339 21.3794 25.6614 21.0438 25.4834L16 22.8071L10.9562 25.4834C10.6206 25.6614 10.2131 25.6339 9.9044 25.4124C9.59573 25.1908 9.4393 24.8135 9.50065 24.4385L10.4291 18.7649L6.30193 14.741C6.02942 14.4753 5.93136 14.078 6.04897 13.716C6.16658 13.354 6.47946 13.0902 6.85609 13.0354L12.5267 12.2106L15.1056 7.05279C15.275 6.714 15.6213 6.5 16 6.5ZM16 9.73607L14.082 13.5722C13.9356 13.8649 13.6553 14.0675 13.3315 14.1146L9.14842 14.723L12.1981 17.6965C12.4318 17.9243 12.5396 18.2519 12.4869 18.574L11.8 22.7715L15.5313 20.7917C15.8244 20.6361 16.1756 20.6361 16.4687 20.7917L20.2 22.7715L19.5132 18.574C19.4604 18.2519 19.5682 17.9243 19.8019 17.6965L22.8516 14.723L18.6686 14.1146C18.3448 14.0675 18.0645 13.8649 17.9181 13.5722L16 9.73607Z" fill="white"/>
</svg>
