<svg width="151" height="122" viewBox="0 0 151 122" fill="none" xmlns="http://www.w3.org/2000/svg">
<g clip-path="url(#clip0_461_876)">
<path d="M75.4171 46.9973C88.5214 46.9973 99.1817 36.4563 99.1817 23.4987C99.1817 16.0548 95.6617 9.40747 90.1834 5.10089L90.1877 5.09246C90.1877 5.09246 90.1643 5.07772 90.1344 5.06297C86.0838 1.89414 80.97 0 75.4171 0C65.0083 0 56.1399 6.6537 52.9331 15.8842C52.8522 16.0527 52.8223 16.1813 52.8095 16.2487C52.0595 18.5326 51.6504 20.9682 51.6504 23.4987C51.6504 36.4563 62.3107 46.9973 75.415 46.9973H75.4171ZM92.1352 38.7044C90.2069 35.9043 85.2592 34.4315 82.3614 33.7847C80.6184 33.397 79.6063 32.2256 79.6531 30.6559C79.6936 29.2864 80.5694 28.077 81.6475 27.9021C83.1668 27.6514 84.8075 29.1663 86.5419 30.7655C87.5541 31.6989 88.6003 32.6638 89.7125 33.3675C91.8327 34.7118 93.7014 35.2048 94.6986 35.3839C93.9485 36.568 93.0898 37.6804 92.1374 38.7044H92.1352ZM95.1013 34.7202C94.2959 34.6001 92.3334 34.1766 90.1025 32.7629C89.0456 32.0928 88.025 31.151 87.0363 30.2409C85.1676 28.5174 83.4033 26.8887 81.5303 27.1921C80.0985 27.4239 78.9798 28.9029 78.9265 30.6327C78.8818 32.1329 79.7192 33.9322 82.2015 34.4842C86.9574 35.544 90.3475 37.2633 91.6196 39.2375C90.8717 39.9896 90.0727 40.6891 89.2267 41.3318C89.2267 40.9904 89.1628 40.6639 89.0243 40.3478C88.2082 38.479 85.0397 37.2591 79.9408 35.4218C76.3653 34.1345 75.366 32.6428 75.1572 31.6167C74.9441 30.5632 75.5002 29.7225 75.8625 29.3918C77.0323 28.3235 77.7056 26.8634 78.7731 23.9896C79.1034 23.1004 79.5551 22.5948 80.1176 22.4831C80.9508 22.3188 81.9565 23.0246 82.6213 23.7388C83.529 24.7144 85.6513 26.9962 88.4895 29.4402C90.7055 31.3491 94.673 32.2719 96.2072 32.5711C95.8769 33.3085 95.5083 34.0228 95.1034 34.716L95.1013 34.7202ZM96.4948 31.8969C95.1546 31.642 91.1039 30.7444 88.9646 28.9029C86.1563 26.4842 84.0511 24.2234 83.154 23.2564C82.7662 22.8413 81.394 21.5055 79.9749 21.7836C79.1481 21.9458 78.5132 22.6053 78.0913 23.7452C77.0642 26.5053 76.4293 27.9 75.3703 28.8671C74.7822 29.4044 74.1877 30.4853 74.4476 31.76C74.6927 32.9651 75.8007 34.697 79.6936 36.0981C84.6285 37.8764 87.6734 39.0668 88.3595 40.6344C88.5321 41.0284 88.5449 41.4561 88.4043 41.9301C87.5839 42.4969 86.7252 43.011 85.8324 43.4682C85.3189 40.1013 81.5836 38.6117 77.9613 37.1685C74.4498 35.7695 71.1321 34.4484 71.1321 31.6104C71.1321 28.7723 72.2572 27.5398 73.5612 26.2545C74.9313 24.904 76.4847 23.3743 76.4847 19.5039C76.4847 18.048 76.1608 16.9419 75.6366 16.0949C77.7823 17.0851 80.8016 18.758 83.936 21.3917C84.5305 21.8911 85.0887 22.3672 85.6214 22.8202C89.8297 26.402 92.408 28.5974 96.3244 28.5974C96.725 28.5974 97.1405 28.5722 97.5709 28.5258C97.3024 29.6846 96.9402 30.8097 96.497 31.8948L96.4948 31.8969ZM97.7712 19.4449C96.7676 19.5798 96.2668 19.3438 93.7973 16.6511C92.0287 14.7233 90.0002 14.8054 88.368 14.8729C87.0171 14.9276 86.1648 14.9255 85.6747 14.1818C85.1932 13.4549 85.0525 12.768 85.2528 12.1444C85.5298 11.2805 86.4929 10.4883 87.961 9.91524C89.8766 9.16728 92.4122 9.53599 93.3477 9.71087C95.5488 12.5047 97.0978 15.8231 97.769 19.4428L97.7712 19.4449ZM91.0933 7.24365C91.6409 7.75984 92.1608 8.30343 92.6552 8.8702C91.3831 8.70164 89.3652 8.5963 87.6968 9.24734C85.9965 9.91103 84.914 10.8381 84.5624 11.9274C84.2918 12.768 84.4623 13.6593 85.0674 14.5758C85.809 15.6988 87.0661 15.6461 88.3979 15.5913C89.9533 15.5281 91.7197 15.4544 93.2582 17.1336C95.5424 19.6261 96.335 20.195 97.3471 20.195C97.5176 20.195 97.6987 20.1781 97.8905 20.1507C98.0567 21.2421 98.1419 22.3609 98.1419 23.4965C98.1419 23.7915 98.1334 24.0844 98.1227 24.3772C95.7746 24.3772 94.0508 23.6061 92.4336 21.8489C90.8568 20.136 89.6316 19.0446 87.684 18.1913C85.7344 17.3359 79.7554 14.2618 77.9932 12.806C77.6161 12.4941 77.1921 12.0327 77.3114 11.5966C77.4542 11.0656 78.3597 10.581 79.619 10.3619C82.2889 9.89628 83.5695 9.13357 84.9268 8.32661C85.4062 8.04217 85.9027 7.7451 86.4674 7.46277C88.0207 6.68741 90.2026 7.04559 91.0933 7.24154V7.24365ZM90.0748 6.33977C88.9306 6.20493 87.39 6.19861 86.1414 6.82226C85.5511 7.11723 85.044 7.41852 84.5539 7.71138C83.2563 8.48252 82.0311 9.21363 79.4954 9.65609C77.8888 9.93631 76.8362 10.5768 76.6104 11.4133C76.491 11.8557 76.5528 12.5531 77.5287 13.3601C79.3697 14.8813 85.3572 17.9595 87.3921 18.8508C89.2225 19.6535 90.388 20.6943 91.8987 22.3356C93.6353 24.2213 95.5615 25.0852 98.0865 25.0978C98.029 25.9006 97.931 26.6907 97.7903 27.4681C93.3754 28.0665 90.9697 26.0207 86.299 22.0449C85.7663 21.5919 85.2059 21.1136 84.6093 20.6122C78.9052 15.8168 73.6976 14.1523 72.8943 13.9142C72.2593 13.6593 71.5988 13.4802 70.9595 13.3432C70.1307 13.1662 69.2336 13.0398 68.3579 12.9513C71.9376 11.8873 74.9398 10.0122 77.5032 8.40878C79.8577 6.93603 81.8926 5.66555 83.6356 5.48435C87.5434 5.08193 89.231 5.76247 89.5655 5.9226C89.7381 6.05955 89.9086 6.19861 90.0769 6.33977H90.0748ZM75.4171 1.02608C79.8002 1.02608 83.8976 2.26074 87.3729 4.39507C86.3949 4.30868 85.1314 4.29815 83.5248 4.4646C81.541 4.66897 79.4102 6.00055 76.9449 7.54283C73.3545 9.78882 68.8863 12.5826 63.2291 12.7659C58.6628 12.9155 56.0973 13.6213 54.6548 14.363C58.2025 6.51254 66.1738 1.02608 75.4171 1.02608ZM53.8856 16.3014C54.1413 15.8273 55.6073 14.0406 63.2653 13.7899C63.3654 13.7857 63.4634 13.7815 63.5615 13.7751C63.6019 13.7751 67.7271 13.6972 70.7358 14.344C74.0811 15.0625 75.447 16.5584 75.447 19.5039C75.447 22.9466 74.1749 24.2003 72.8282 25.5276C71.4837 26.8529 70.0923 28.2224 70.0923 31.6104C70.0923 34.9983 73.8936 36.6565 77.5714 38.1208C81.1873 39.5598 84.6093 40.9251 84.8395 43.9465C81.9672 45.2464 78.7774 45.9712 75.4171 45.9712C74.2921 45.9712 73.1862 45.8891 72.1038 45.731C73.5634 41.5509 71.1172 39.1616 68.7435 36.8482C67.2008 35.3438 65.7434 33.9217 65.3918 32.0591C64.9358 29.6362 66.7172 28.1402 68.6008 26.5579C70.429 25.022 72.319 23.4354 72.319 20.8903C72.319 19.9379 71.9759 19.1225 71.3026 18.4652C69.9261 17.1252 67.1838 16.4826 63.1545 16.5373C58.8226 16.6027 55.0724 17.161 53.5361 17.4223C53.6427 17.0451 53.7599 16.6722 53.8856 16.3035V16.3014ZM53.3337 18.185C54.5653 17.9658 58.5243 17.3232 63.1651 17.2537C66.9366 17.201 69.5788 17.791 70.7933 18.9751C71.3303 19.4997 71.5924 20.1255 71.5924 20.8882C71.5924 23.1004 69.9112 24.5142 68.1299 26.008C66.1695 27.6535 64.141 29.358 64.6759 32.1898C65.0701 34.2756 66.6767 35.8432 68.2321 37.3581C70.5632 39.6315 72.7686 41.7826 71.375 45.6131C68.5432 45.1095 65.8925 44.0834 63.5274 42.6423C65.2554 40.449 63.4443 37.5772 62.2169 35.6325L61.9101 35.1437C61.0322 33.7257 60.3525 31.2732 60.9342 29.2358C61.3241 27.8663 62.2297 26.815 63.6254 26.1134C66.0481 24.8934 67.3692 23.0709 66.9942 21.4697C66.6383 19.9506 64.8953 19.0572 62.2127 19.0172C57.7934 18.954 54.365 19.7989 52.931 20.2245C53.0333 19.5334 53.1675 18.855 53.3316 18.185H53.3337ZM52.8308 21.0083C53.9602 20.6543 57.5591 19.6598 62.202 19.7336C64.4884 19.7673 66.0161 20.4752 66.2867 21.6298C66.5808 22.8792 65.379 24.4215 63.2972 25.4707C61.7141 26.2693 60.6849 27.4681 60.2353 29.0399C59.4981 31.6188 60.5528 34.3262 61.2901 35.5187L61.599 36.0117C62.7859 37.8932 64.3861 40.43 62.9094 42.2504C61.3902 41.2559 59.9988 40.0887 58.7629 38.7718C59.123 38.5 59.3809 38.1524 59.5258 37.7268C59.9903 36.3741 59.2019 34.5537 58.4604 33.2643C57.7998 32.1181 56.6066 29.1768 59.7857 26.6085C61.6587 25.0957 61.7396 23.9538 61.4754 23.2648C61.0642 22.1881 59.5322 21.5919 57.3737 21.6698C55.0703 21.7541 53.5489 22.422 52.6966 22.9466C52.7115 22.2935 52.7584 21.6467 52.8287 21.0083H52.8308ZM58.1812 38.1271C54.8636 34.3115 52.8181 29.3875 52.6966 24.0001C53.2165 23.5956 54.723 22.6306 57.4078 22.5316C59.123 22.4684 60.3973 22.8771 60.6615 23.5682C60.8873 24.1623 60.3674 25.0262 59.236 25.9406C55.4368 29.0083 57.1031 32.6491 57.7039 33.692C58.6287 35.2954 58.9824 36.6312 58.7011 37.4487C58.6053 37.7289 58.4327 37.9522 58.1791 38.125L58.1812 38.1271Z" fill="white"/>
<path d="M108.526 87.796C108.679 87.8613 108.83 87.8887 109.016 87.8782C109.201 87.8676 109.382 87.7834 109.487 87.6654C109.555 87.5516 109.585 87.4378 109.578 87.3283C109.572 87.2187 109.529 87.1471 109.489 87.0754C109.446 87.0038 109.367 86.9343 109.329 86.9006C109.169 86.7257 109.016 86.6604 108.83 86.673C108.681 86.6814 108.538 86.7636 108.436 86.9174C108.334 87.0712 108.268 87.2229 108.278 87.4062C108.289 87.5895 108.37 87.6949 108.526 87.796Z" fill="white"/>
<path d="M25.0744 95.3346C26.1931 94.7278 27.6399 93.9588 28.8885 94.279C28.8054 94.8163 28.2173 95.2988 27.8423 95.7455C26.4701 97.1424 24.676 98.6931 23.2164 99.8498C23.2164 99.8498 23.1972 99.8582 23.1866 99.8603C22.9799 99.9172 22.8542 100.128 22.9032 100.334C22.9607 100.589 23.2398 100.697 23.4763 100.61C23.7938 100.553 24.0751 100.427 24.3244 100.271C24.6952 100.16 25.0787 100.079 25.4537 100.006C26.8771 99.6707 28.1918 100.187 29.63 100.178C30.3652 100.172 31.0832 100.107 31.8141 99.9235C31.9441 99.8898 32.0272 99.7613 31.9973 99.6286C31.9675 99.4895 31.8205 99.4052 31.682 99.4431C29.6023 100.033 27.4907 99.0007 25.3962 99.3294C26.4232 98.3159 27.3927 97.254 28.277 96.1058C31.2111 92.4376 26.7045 94.0515 24.7932 94.77C24.3436 94.928 24.6738 95.5875 25.0723 95.3304L25.0744 95.3346Z" fill="white"/>
<path d="M131.252 89.7386L131.105 89.785C127.82 90.8995 121.086 98.4761 118.638 98.6214L118.563 98.6257C118.191 98.6109 117.905 98.2232 117.862 97.4879C117.815 96.7168 118.039 95.4884 118.836 93.8577C119.499 92.4924 120.134 91.2767 120.786 90.3538L120.816 90.2422C120.803 90.023 120.451 89.747 120.191 89.7639C120.081 89.7702 120.008 89.8123 119.976 89.8861L119.503 90.6867C118.738 89.7365 118.009 89.3741 117.191 89.4226C116.97 89.4352 116.71 89.4499 116.49 89.5363C115.525 89.8587 114.762 90.3939 114.195 91.0154C110.111 93.1223 106.38 95.3114 103.045 97.6185C103.705 96.2174 104.475 94.7721 105.387 93.2087C106.299 91.6454 107.119 90.4191 107.918 89.4499L107.984 89.2982C107.978 89.1887 107.935 89.1171 107.818 89.0138C107.701 88.9106 107.549 88.8832 107.439 88.8895C107.328 88.8958 107.255 88.938 107.185 89.0159C106.548 89.7976 105.917 90.6762 105.293 91.6496C103.497 92.9243 99.0284 94.652 95.421 95.933C95.5808 94.2664 95.4785 93.1666 95.7022 91.9382C96.0645 91.7697 98.2251 90.5371 98.1675 89.5827L98.1164 89.3657C97.9886 89.1149 97.7606 89.018 97.4623 89.0349C96.6462 89.0833 95.3634 90.042 94.8947 91.5421C94.8563 91.6686 94.8244 91.7992 94.7945 91.9319C91.4918 93.1013 84.8118 100.606 82.3742 100.749L82.2996 100.754C81.9267 100.739 81.6412 100.349 81.5986 99.6159C81.5517 98.8448 81.7754 97.6164 82.5724 95.9857C83.235 94.6204 83.87 93.4047 84.522 92.4818L84.5518 92.3702C84.5391 92.151 84.1875 91.875 83.9275 91.8919C83.8167 91.8982 83.7443 91.9403 83.7123 92.0141L83.2393 92.8147C82.4743 91.8645 81.7456 91.5021 80.9274 91.5506C80.7058 91.5632 80.4458 91.5779 80.2264 91.6643C79.1716 92.0162 78.3534 92.623 77.776 93.3183C74.0301 95.2398 69.3253 94.9301 65.1575 94.4708L64.9913 94.4518L65.1298 94.3591C69.2251 91.6159 72.7495 87.4273 74.5585 83.1565C75.756 80.5144 75.6558 78.2031 74.2623 76.2858C70.5143 71.1301 58.3198 70.0198 52.6242 70.5697C48.58 71.0016 38.9105 72.645 36.4963 78.5318C35.8422 80.5481 36.1682 82.8616 37.3486 84.564C38.3629 86.0262 39.8928 86.8858 41.6592 86.9848C41.7871 86.9954 41.8531 86.9048 41.8616 86.8121C41.8702 86.7194 41.8211 86.6224 41.6933 86.6098C38.2734 86.3254 36.6178 83.2787 36.7499 80.4175C36.7584 78.8521 37.6214 77.2824 39.1768 75.9972C42.3219 73.5089 46.7454 72.0129 52.7009 71.423C58.062 70.9363 70.0476 72.0572 73.4611 76.8526C74.6565 78.5318 74.7247 80.525 73.6657 82.7752C71.5605 87.56 67.8657 91.7465 63.5317 94.2559L63.5125 94.2664L63.4912 94.2622C62.2319 94.0705 60.9684 93.7734 59.7432 93.4847C57.721 93.0107 55.6307 92.5198 53.5106 92.4839C52.6263 92.4945 51.7229 92.9538 51.2669 93.6238C51.0219 93.982 50.7939 94.5656 51.09 95.3157C51.5439 96.4408 52.6498 97.1655 54.3736 97.4689C57.4739 97.8103 60.8533 96.9485 64.1475 94.9785L64.1667 94.968H64.188C69.8942 95.7286 74.2154 95.3936 77.3306 93.9483C76.896 94.6773 76.6957 95.4505 76.734 96.1036C76.7894 97.0202 77.3136 97.6902 78.3534 97.6291C79.1333 97.5827 80.2221 97.115 81.605 95.9646C81.0851 97.2098 80.8315 98.5877 80.8933 99.6159C80.9551 100.644 81.3322 101.358 82.1867 101.308L82.2975 101.301C84.9333 101.074 90.4776 94.5972 94.7114 92.3617C94.5069 93.6449 94.5878 95.1387 94.4792 96.3502C92.4507 97.3172 91.0933 98.2801 90.1835 99.2556C89.0244 100.429 88.6067 101.521 88.6557 102.33C88.7154 103.32 89.4974 103.937 90.5372 103.876C92.2823 103.773 94.6922 101.752 95.3421 96.4492C97.7052 95.362 102.397 93.8956 104.905 92.2669C104.639 92.6988 104.375 93.1476 104.112 93.6133C103.102 95.4041 102.269 97.037 101.579 98.5498C99.8317 99.8308 97.9183 101.453 95.8343 103.381C93.7526 105.309 91.7965 107.449 89.9598 109.729C89.5464 110.269 88.9988 111.111 88.285 112.222C87.5712 113.368 86.9021 114.624 86.3481 115.945C85.7579 117.268 85.4937 118.462 85.5576 119.526C85.6045 120.298 85.8644 120.909 86.3758 121.357C86.8488 121.808 87.4604 122.029 88.1635 121.989C89.3504 121.92 90.5713 121.149 91.8242 119.674C93.0409 118.239 94.2746 116.436 95.4487 114.303C96.6249 112.171 97.6839 109.974 98.7024 107.704C99.7209 105.435 100.567 103.396 101.317 101.622C101.837 100.377 102.263 99.3926 102.589 98.6383C105.924 96.1921 109.62 93.8534 113.729 91.6138C113.202 92.4018 112.957 93.2593 113 93.9735C113.055 94.8901 113.579 95.5601 114.619 95.499C115.399 95.4526 116.488 94.9849 117.871 93.8345C117.351 95.0797 117.097 96.4576 117.159 97.4858C117.221 98.514 117.598 99.2282 118.453 99.1777L118.563 99.1713C118.74 99.1566 118.93 99.1124 119.132 99.0428C118.817 99.2957 118.521 99.5674 118.24 99.8603C117.675 100.467 117.185 101.192 116.987 102.039C116.648 104.812 118.112 106.187 120.624 104.413C121.608 103.786 122.439 102.976 123.294 102.201C123.436 102.066 123.441 101.843 123.302 101.704C123.157 101.554 122.914 101.563 122.776 101.717C121.87 102.572 118.83 105.897 117.745 104.148C116.788 102.197 118.781 99.6285 120.556 98.3054C120.739 98.1874 120.926 98.061 121.118 97.9219C121.131 97.9135 121.144 97.9051 121.157 97.8967C121.169 97.8903 121.178 97.8777 121.189 97.8693C124.144 95.7349 128.141 91.5864 131.312 90.0589C131.382 89.9809 131.452 89.9029 131.45 89.8671C131.446 89.7934 131.367 89.7238 131.256 89.7302L131.252 89.7386ZM97.5198 89.3657C97.6689 89.3572 97.784 89.4247 97.833 89.6059L97.8373 89.6796C97.8714 90.2295 96.1817 91.2493 95.7832 91.4579C95.9196 90.6404 96.9637 89.3994 97.5198 89.3678V89.3657ZM62.4684 94.8395C61.0003 95.5832 59.5002 96.1353 58.0108 96.4829H58.0087C57.15 96.6515 56.3787 96.7357 55.6819 96.7357C54.6016 96.7357 53.696 96.5335 52.9119 96.1268C52.3174 95.834 51.8635 95.2862 51.7847 94.7657C51.7314 94.4076 51.8529 94.0747 52.1384 93.805C53.2315 92.9454 54.772 93.2382 56.1315 93.4974C56.4767 93.5627 56.8027 93.6259 57.1159 93.668C58.5265 93.9841 60.4037 94.3886 62.4535 94.7215L62.6389 94.751L62.4727 94.8353L62.4684 94.8395ZM78.2831 97.1634C77.7632 97.195 77.45 96.9549 77.4223 96.4787C77.3903 95.9646 77.646 95.2503 78.3321 94.2517C79.0502 93.1792 79.9962 92.2016 80.9998 92.1426C81.6306 92.1047 82.2826 92.4355 82.8984 93.3562C81.1511 95.8908 79.2867 97.1044 78.2852 97.1634H78.2831ZM90.5074 103.442C90.2112 103.459 89.9449 103.364 89.7105 103.193C89.3994 102.991 89.197 102.709 89.1693 102.231C89.133 101.643 89.4548 100.777 90.4286 99.6517C91.4407 98.5245 93.1666 97.5027 94.4344 96.9106C94.2235 100.202 92.1396 103.343 90.5074 103.44V103.442ZM100.147 102.064C99.5291 103.573 98.7833 105.385 97.9033 107.5C97.0276 109.651 96.0368 111.771 94.9714 113.861C93.8676 115.951 92.7468 117.748 91.6047 119.179C90.4605 120.609 89.3525 121.374 88.2765 121.437C87.7203 121.471 87.2622 121.313 86.868 120.932C86.4355 120.553 86.2181 120.049 86.1819 119.425C86.1222 118.435 86.3907 117.314 86.949 116.065C87.5072 114.817 88.106 113.64 88.7857 112.531C89.4292 111.461 89.9427 110.696 90.3241 110.231C91.9478 108.109 93.7654 106.124 95.7022 104.279C97.6391 102.433 99.4119 100.931 101.089 99.7255C100.859 100.218 100.567 100.971 100.149 102.064H100.147ZM114.549 95.0291C114.029 95.0607 113.716 94.8205 113.688 94.3444C113.656 93.8303 113.912 93.116 114.598 92.1173C115.316 91.0449 116.262 90.0673 117.266 90.0083C117.896 89.9704 118.548 90.3011 119.164 91.2219C117.417 93.7565 115.553 94.9701 114.551 95.0291H114.549Z" fill="white"/>
<path d="M59.0908 79.4378H59.095C59.3358 79.2966 59.4658 79.088 59.4615 78.8457C59.4594 78.5908 59.3017 78.3338 59.0716 78.2095C58.8543 78.0915 58.6092 78.1041 58.3791 78.2432C54.582 81.1276 51.8738 85.1666 49.2551 89.0728L48.9056 89.5932C48.0959 90.8363 47.1541 92.3765 46.1569 94.0073C41.0899 102.3 33.4319 114.832 25.7632 116.423C23.4705 116.88 21.0009 115.881 19.4753 113.878C19.4731 113.876 19.471 113.874 19.4667 113.874C19.4625 113.874 19.4603 113.874 19.4561 113.878C19.4433 113.886 19.4476 113.89 19.4497 113.893C20.1017 114.954 21.035 115.806 22.1515 116.358C25.2241 117.74 28.8273 116.619 32.8587 113.029C36.2509 110.009 39.266 105.867 41.2625 103.128C41.4628 102.852 41.6546 102.591 41.8357 102.342C43.4998 100.014 45.0638 97.5553 46.5788 95.1787C48.8992 91.5337 51.2964 87.7644 54.109 84.3807C55.739 82.4444 57.2391 80.7378 59.0908 79.4378Z" fill="white"/>
<path d="M3.03423 58.2673H0V66.7604H1.24012V63.1786H2.88721C4.70477 63.1786 5.95554 62.3421 5.95554 60.6545C5.95554 59.0869 4.68772 58.2673 3.03423 58.2673ZM2.82755 62.2094H1.24012V59.2344H2.85099C3.94195 59.2344 4.68985 59.6832 4.68985 60.6776C4.68985 61.8365 3.94621 62.2094 2.82968 62.2094H2.82755Z" fill="white"/>
<path d="M23.3229 64.3901C23.3229 63.2102 22.7817 62.3969 20.5785 61.7627C19.1849 61.3624 18.7268 61.0737 18.7268 60.3089C18.7268 59.5441 19.2212 59.1038 20.2141 59.1038C21.2838 59.1038 21.7653 59.641 21.8953 60.4627H23.1184C23.0225 59.2323 22.1936 58.1577 20.2397 58.1577C18.5819 58.1577 17.4696 59.0279 17.4696 60.4206C17.4696 61.6405 18.1792 62.2536 20.0756 62.7951C21.5799 63.2355 22.0487 63.6189 22.0487 64.527C22.0487 65.4351 21.4137 65.9092 20.359 65.9092C19.3043 65.9092 18.5947 65.3824 18.4306 64.3437H17.2012C17.3248 65.9155 18.4434 66.8594 20.3036 66.8594C22.3129 66.8594 23.3229 65.7996 23.3229 64.3922V64.3901Z" fill="white"/>
<path d="M36.9641 63.4377V66.7604H38.1978V63.4293C38.1978 63.3324 38.2085 63.2713 38.2532 63.2123L41.1681 58.2673H39.8641C39.1695 59.5336 38.3044 61.0548 37.6396 62.2768C37.2688 61.5857 36.1395 59.5905 35.4214 58.2673H34.0215L36.8938 63.2017C36.9364 63.2607 36.9641 63.3534 36.9641 63.4377Z" fill="white"/>
<path d="M55.3137 59.1354C56.6178 59.1354 57.1228 59.8602 57.3401 60.7977H58.5717C58.4162 59.3882 57.4658 58.1493 55.3585 58.1493C52.8271 58.1493 51.668 60.1994 51.668 62.4664C51.668 64.9842 52.6588 66.8847 55.2946 66.8847C57.4168 66.8847 58.3565 65.6184 58.6165 64.251H57.387C57.1334 65.1486 56.6199 65.9028 55.3265 65.9028C53.4962 65.9028 52.9464 64.2194 52.9464 62.4664C52.9464 60.7135 53.6176 59.1354 55.3159 59.1354H55.3137Z" fill="white"/>
<path d="M76.8423 66.7604V58.2673H75.6022V61.7985H71.6261V58.2673H70.3945V66.7604H71.6261V62.8078H75.6022V66.7604H76.8423Z" fill="white"/>
<path d="M88.873 62.4643C88.873 64.9842 90.0961 66.8826 92.6019 66.8826C95.2377 66.8826 96.4331 64.9021 96.4331 62.4622C96.4331 60.0224 95.2015 58.1493 92.7106 58.1493C90.0791 58.1493 88.873 60.2668 88.873 62.4664V62.4643ZM95.1695 62.4685C95.1695 64.4238 94.4365 65.9007 92.6658 65.9007C90.8952 65.9007 90.1558 64.3859 90.1558 62.4496C90.1558 60.6165 90.9186 59.1291 92.6616 59.1291C94.4046 59.1291 95.1695 60.5997 95.1695 62.4685Z" fill="white"/>
<path d="M113.913 65.7638H109.701V58.2673H108.467V66.7604H113.749L113.913 65.7638Z" fill="white"/>
<path d="M128.57 58.1493C125.938 58.1493 124.732 60.2668 124.732 62.4664C124.732 64.9863 125.955 66.8847 128.461 66.8847C131.097 66.8847 132.292 64.9042 132.292 62.4643C132.292 60.0245 131.061 58.1514 128.57 58.1514V58.1493ZM128.525 65.9028C126.833 65.9028 126.015 64.388 126.015 62.4517C126.015 60.6187 126.778 59.1312 128.521 59.1312C130.264 59.1312 131.029 60.6018 131.029 62.4706C131.029 64.3395 130.296 65.9028 128.525 65.9028Z" fill="white"/>
<path d="M147.543 63.1849H149.759V63.2355C149.759 64.7124 149.38 65.9028 147.586 65.9028C145.791 65.9028 145.167 64.3437 145.167 62.5612C145.167 60.665 145.917 59.1354 147.692 59.1354C148.977 59.1354 149.535 59.778 149.782 60.625H150.999C150.743 59.1459 149.678 58.1493 147.752 58.1493C145.244 58.1493 143.889 60.1003 143.889 62.557C143.889 65.0137 145.033 66.8847 147.351 66.8847C148.589 66.8847 149.463 66.5307 149.927 65.5826C149.946 66.1451 149.983 66.5117 150.034 66.7625H150.978V62.1546H147.541V63.187L147.543 63.1849Z" fill="white"/>
</g>
<defs>
<clipPath id="clip0_461_876">
<rect width="151" height="122" fill="white"/>
</clipPath>
</defs>
</svg>
