<svg width="105" height="46" viewBox="0 0 105 46" fill="none" xmlns="http://www.w3.org/2000/svg">
<path d="M27.3012 3.6564L27.3051 3.6512C27.3051 3.6512 27.2882 3.64081 27.2674 3.62912C24.3972 1.35735 20.7741 0 16.8395 0C9.46344 0 3.18044 4.76955 0.908698 11.3887C0.850282 11.5095 0.829512 11.6017 0.821723 11.6511C0.289486 13.289 0 15.036 0 16.8493C0 26.1403 7.55388 33.6973 16.8382 33.6973C26.1225 33.6973 33.6764 26.139 33.6764 16.8493C33.6764 11.5121 31.1826 6.74647 27.2999 3.65769L27.3012 3.6564ZM16.1502 22.7723C16.3241 23.636 17.1095 24.8778 19.868 25.8831C23.3652 27.1573 25.5227 28.012 26.0082 29.1355C26.1303 29.4187 26.1407 29.7252 26.0407 30.0656C25.4591 30.4721 24.8516 30.841 24.2181 31.1683C23.8546 28.7537 21.2077 27.686 18.6413 26.6508C16.1528 25.648 13.8018 24.7011 13.8018 22.6657C13.8018 20.6304 14.6002 19.7471 15.5232 18.8262C16.4942 17.8585 17.595 16.761 17.595 13.9865C17.595 12.9422 17.3652 12.1499 16.994 11.542C18.5154 12.2525 20.6534 13.4514 22.8745 15.34C23.2951 15.6985 23.6924 16.0388 24.0688 16.3635C27.0507 18.9327 28.8784 20.5057 31.6526 20.5057C31.9356 20.5057 32.2302 20.4875 32.5353 20.4537C32.3445 21.285 32.0887 22.0916 31.7746 22.8697C30.8256 22.6865 27.9542 22.0436 26.4392 20.7226C24.4492 18.9886 22.9589 17.3662 22.3215 16.6739C22.0476 16.3752 21.074 15.4192 20.068 15.6179C19.4825 15.7348 19.0333 16.2076 18.7322 17.0246C18.0052 19.0029 17.5548 20.003 16.8031 20.6966C16.3864 21.0811 15.9645 21.8565 16.1489 22.771L16.1502 22.7723ZM18.3336 9.57806C19.637 10.6691 23.8806 12.876 25.3215 13.515C26.6184 14.0904 27.4453 14.8373 28.515 16.0141C29.7456 17.3662 31.1099 17.9858 32.8988 17.9936C32.8585 18.569 32.7884 19.1366 32.6885 19.6939C29.56 20.1225 27.8555 18.6561 24.5465 15.805C24.1688 15.4803 23.7715 15.1373 23.3497 14.7788C19.3072 11.3407 15.6179 10.147 15.048 9.97683C14.5989 9.79368 14.129 9.66639 13.6772 9.56767C13.0904 9.44038 12.4544 9.35075 11.8338 9.28711C14.3704 8.52466 16.4968 7.1803 18.3142 6.03078C19.9836 4.97478 21.4245 4.06295 22.659 3.93436C25.428 3.6447 26.6249 4.13309 26.8598 4.24739C26.9818 4.34481 27.1039 4.44482 27.2233 4.54614C26.4133 4.45002 25.3215 4.44482 24.4362 4.89164C24.0182 5.10336 23.6586 5.31898 23.3107 5.5294C22.3916 6.08273 21.5232 6.60619 19.7252 6.92312C18.5868 7.12445 17.8416 7.58296 17.682 8.18305C17.5976 8.49998 17.6417 9.00005 18.3323 9.57936L18.3336 9.57806ZM32.6781 13.9424C31.9667 14.0385 31.6123 13.8709 29.8624 11.9395C28.6097 10.5574 27.1714 10.6172 26.016 10.6652C25.058 10.7042 24.4557 10.7029 24.1078 10.1704C23.7677 9.6482 23.6664 9.15722 23.8092 8.7091C24.0065 8.08953 24.688 7.52191 25.7278 7.11146C27.0844 6.57501 28.881 6.83869 29.5457 6.96469C31.106 8.96758 32.2043 11.3472 32.6781 13.9424ZM29.0524 6.3607C28.1515 6.2399 26.7209 6.16456 25.5396 6.63087C24.3349 7.10626 23.5664 7.7713 23.3185 8.55194C23.1264 9.15462 23.2471 9.79368 23.6768 10.4509C24.2012 11.2549 25.0931 11.2186 26.0368 11.1796C27.1402 11.1341 28.3903 11.0822 29.4808 12.285C31.0996 14.0722 31.6616 14.4801 32.3782 14.4801C32.4989 14.4801 32.6262 14.4671 32.7625 14.4489C32.8793 15.2322 32.9416 16.0336 32.9416 16.848C32.9416 17.0597 32.9364 17.2701 32.9286 17.4792C31.2644 17.4792 30.0429 16.9272 28.8979 15.6673C27.7802 14.4385 26.913 13.6566 25.5318 13.0448C24.1493 12.4317 19.9135 10.2275 18.6647 9.1832C18.3972 8.95979 18.0974 8.62857 18.1805 8.31554C18.2817 7.93496 18.9243 7.58815 19.8161 7.42969C21.7075 7.09587 22.6162 6.54904 23.5768 5.96973C23.9169 5.7658 24.2674 5.55408 24.6686 5.35145C25.7694 4.79553 27.3142 5.05271 27.9464 5.19299C28.3345 5.56317 28.7032 5.95285 29.0524 6.3594V6.3607ZM16.8395 0.736476C19.9459 0.736476 22.8486 1.62232 25.3111 3.15242C24.6179 3.09008 23.7222 3.08358 22.585 3.20178C21.1792 3.34856 19.6707 4.30325 17.9234 5.40861C15.3791 7.01794 12.2129 9.02214 8.20554 9.15462C4.96928 9.26113 3.15188 9.7677 2.12895 10.3003C4.64215 4.67083 10.2904 0.737776 16.8395 0.737776V0.736476ZM9.22978 23.0801C9.50888 24.5751 10.6473 25.6987 11.7495 26.7858C13.402 28.416 14.9637 29.9578 13.9758 32.7049C11.9689 32.3425 10.0917 31.6073 8.41584 30.5747C9.63999 29.0018 8.35613 26.943 7.48767 25.5493L7.27088 25.1999C6.64907 24.1842 6.16746 22.4242 6.57897 20.9642C6.85548 19.9822 7.49806 19.2289 8.48594 18.7249C10.2021 17.8494 11.1393 16.5427 10.8719 15.3958C10.6188 14.3073 9.38426 13.6657 7.48378 13.6371C4.35266 13.5917 1.92384 14.1982 0.907399 14.5035C0.980095 14.0086 1.07486 13.5215 1.19169 13.0422C2.06404 12.8851 4.86932 12.4239 8.15751 12.3746C10.8304 12.3369 12.7023 12.7604 13.5617 13.6085C13.9433 13.9839 14.1277 14.4333 14.129 14.9802C14.129 16.5674 12.9373 17.5793 11.6768 18.6522C10.2878 19.8328 8.85072 21.0538 9.22978 23.084V23.0801ZM4.62657 27.3392C2.27564 24.6037 0.825617 21.072 0.73994 17.2104C1.10731 16.9194 2.17568 16.2271 4.07746 16.1583C5.29252 16.1128 6.19602 16.4064 6.38296 16.9025C6.54393 17.3273 6.17525 17.9482 5.373 18.6028C2.68196 20.8018 3.86197 23.4126 4.28776 24.1608C4.94332 25.3103 5.19386 26.2676 4.99524 26.8547C4.92774 27.056 4.80442 27.2158 4.62657 27.3405V27.3392ZM5.04068 27.8016C5.29511 27.6067 5.47815 27.3574 5.582 27.0521C5.91043 26.0818 5.35223 24.7765 4.82649 23.8529C4.35915 23.0307 3.51277 20.9213 5.76634 19.0808C7.09434 17.9962 7.15016 17.1779 6.96323 16.683C6.67244 15.9115 5.5859 15.4841 4.05669 15.5387C2.42493 15.5984 1.34617 16.0777 0.742536 16.4531C0.75422 15.9842 0.786673 15.5218 0.8373 15.0633C1.63825 14.8087 4.1878 14.0956 7.47729 14.1502C9.09737 14.1749 10.18 14.6827 10.3721 15.5101C10.5798 16.4051 9.72826 17.5117 8.25358 18.2638C7.13198 18.8353 6.40243 19.6965 6.08438 20.8226C5.56253 22.6722 6.30896 24.6128 6.83211 25.4675L7.0515 25.8208C7.89269 27.169 9.02597 28.9888 7.97967 30.2942C6.90351 29.5811 5.91692 28.7433 5.04198 27.8003L5.04068 27.8016ZM14.4911 32.7893C15.5258 29.7928 13.7914 28.0782 12.1104 26.4196C11.0173 25.3402 9.984 24.3218 9.73475 22.9853C9.41152 21.2486 10.6733 20.1758 12.0091 19.0405C13.3046 17.9391 14.643 16.8012 14.643 14.9763C14.643 14.2931 14.4003 13.7086 13.9226 13.2384C12.9477 12.2785 11.0043 11.8161 8.14843 11.8563C5.07962 11.9031 2.42233 12.3044 1.33319 12.4915C1.40978 12.2213 1.49156 11.9537 1.58113 11.6888C1.76158 11.3485 2.80139 10.0677 8.22632 9.8885C8.29642 9.8859 8.36651 9.88201 8.43661 9.87811C8.46517 9.87811 11.3886 9.82226 13.5201 10.2847C15.8905 10.8003 16.8577 11.8719 16.8577 13.9839C16.8577 16.4518 15.9567 17.3507 15.0026 18.3027C14.0498 19.2522 13.0645 20.2355 13.0645 22.6644C13.0645 25.0934 15.7581 26.2819 18.3635 27.3327C20.926 28.3653 23.3497 29.3434 23.5132 31.5086C21.4777 32.4399 19.2177 32.9608 16.8369 32.9608C16.0398 32.9608 15.2557 32.901 14.4898 32.7893H14.4911ZM26.6236 29.6369C26.6249 29.3927 26.5781 29.1576 26.4808 28.9303C25.9018 27.5899 23.6573 26.7157 20.0446 25.3986C17.5106 24.4751 16.8031 23.4048 16.6551 22.6709C16.5033 21.9163 16.8979 21.3136 17.1536 21.0759C17.9818 20.3108 18.4596 19.2626 19.2164 17.2026C19.45 16.5648 19.7707 16.2024 20.1692 16.1232C20.7599 16.005 21.4725 16.5116 21.9425 17.0233C22.585 17.7221 24.0896 19.3588 26.1004 21.111C27.6712 22.48 30.4816 23.1411 31.5682 23.3555C31.3345 23.8841 31.0736 24.3972 30.7867 24.8934C30.2155 24.8063 28.8265 24.5037 27.2441 23.4905C26.495 23.0112 25.772 22.3358 25.0723 21.6825C23.7482 20.4472 22.4981 19.2782 21.1701 19.4977C20.1549 19.664 19.3631 20.7252 19.3254 21.9643C19.2943 23.0398 19.8862 24.3296 21.6452 24.7258C25.0152 25.4856 27.4167 26.7183 28.3189 28.1341C27.7893 28.6731 27.2233 29.1745 26.6223 29.6356L26.6236 29.6369ZM30.4985 25.37C29.9676 26.2195 29.3587 27.017 28.6837 27.7509C27.3181 25.7428 23.8118 24.6868 21.7581 24.2231C20.5236 23.9452 19.8057 23.1061 19.8395 21.9786C19.868 20.9967 20.4898 20.1303 21.2519 20.0043C22.3293 19.8251 23.4911 20.9109 24.7192 22.0579C25.4358 22.7268 26.177 23.4191 26.965 23.9231C28.4682 24.8856 29.7923 25.2402 30.4972 25.3687L30.4985 25.37Z" fill="white"/>
<path d="M89.2459 23.3217C89.3458 23.3645 89.4445 23.3827 89.5665 23.3762C89.6872 23.3684 89.8067 23.3126 89.8755 23.236C89.9196 23.1606 89.9404 23.0853 89.9352 23.0125C89.9313 22.9398 89.904 22.8917 89.8768 22.845C89.8495 22.7982 89.7976 22.7515 89.7716 22.7294C89.6678 22.6138 89.5665 22.5709 89.4458 22.5774C89.3484 22.5826 89.2537 22.6372 89.1875 22.7398C89.12 22.8411 89.0771 22.9424 89.0849 23.0632C89.0927 23.1853 89.1446 23.2554 89.2472 23.3217H89.2459Z" fill="white"/>
<path d="M36.309 31.8191C36.5167 31.7814 36.701 31.6983 36.8646 31.5944C37.1073 31.5203 37.3592 31.4671 37.6045 31.4177C38.5366 31.1956 39.3986 31.5385 40.3423 31.532C40.8239 31.5281 41.2951 31.484 41.7742 31.3632C41.8598 31.3411 41.9131 31.2554 41.8949 31.1684C41.8754 31.0761 41.7793 31.0203 41.6885 31.0463C40.3267 31.4372 38.9416 30.754 37.5695 30.9709C38.2432 30.2981 38.8767 29.5941 39.457 28.8342C41.3795 26.4027 38.4276 27.4717 37.1748 27.9497C36.8802 28.0549 37.097 28.4913 37.3579 28.3212C38.09 27.9185 39.039 27.4093 39.8568 27.6211C39.8023 27.977 39.4167 28.2965 39.1714 28.5939C38.2718 29.5201 37.097 30.5488 36.1402 31.3151C36.1337 31.319 36.1272 31.3203 36.1208 31.3229C35.9858 31.3606 35.9027 31.4996 35.9351 31.6372C35.9728 31.8074 36.1558 31.8776 36.3103 31.8204L36.309 31.8191Z" fill="white"/>
<path d="M97.1256 30.2942C97.2463 30.215 97.3683 30.1318 97.4943 30.0396C97.5033 30.0344 97.5111 30.0279 97.5202 30.0227C97.5293 30.0175 97.5345 30.011 97.5423 30.0046C99.4791 28.5901 102.097 25.8377 104.176 24.8259C104.221 24.7739 104.268 24.7232 104.267 24.6986C104.264 24.6492 104.212 24.6037 104.139 24.6089L104.043 24.6388C101.891 25.3779 97.4787 30.402 95.8742 30.4981L95.8249 30.5007C95.5808 30.4903 95.3939 30.2332 95.3653 29.7461C95.3354 29.2343 95.4821 28.4199 96.0027 27.3392C96.4376 26.4339 96.853 25.6273 97.2801 25.0168L97.2995 24.9428C97.2905 24.7973 97.0607 24.6154 96.8906 24.6245C96.8179 24.6284 96.7699 24.6557 96.7491 24.7064L96.4389 25.2376C95.9378 24.6076 95.4601 24.3673 94.9239 24.3998C94.7785 24.4089 94.6085 24.418 94.4644 24.4765C93.8322 24.6895 93.3324 25.0454 92.9612 25.4571C90.2844 26.8547 87.8387 28.3069 85.6539 29.8357C86.0862 28.907 86.5912 27.9484 87.1883 26.9119C87.7855 25.8754 88.3229 25.061 88.846 24.4206L88.8889 24.3206C88.885 24.2478 88.8577 24.1998 88.7798 24.1322C88.702 24.0634 88.6033 24.0452 88.5306 24.0491C88.4579 24.053 88.4099 24.0803 88.3644 24.1322C87.9477 24.6505 87.5336 25.2324 87.1247 25.878C85.9473 26.7235 83.0187 27.8679 80.6561 28.7174C80.7612 27.612 80.6937 26.8833 80.8404 26.0689C81.078 25.9572 82.4942 25.1402 82.4566 24.5076L82.4229 24.3634C82.3398 24.1972 82.1892 24.1335 81.9945 24.1452C81.4596 24.1777 80.6184 24.8129 80.3121 25.8078C80.2874 25.8909 80.2653 25.978 80.2459 26.0663C78.0819 26.8417 73.7045 31.8178 72.1078 31.9126L72.0585 31.9152C71.8144 31.9048 71.6275 31.6477 71.599 31.1606C71.5691 30.6488 71.7158 29.8344 72.2363 28.7537C72.6712 27.8484 73.0866 27.0418 73.5137 26.4313L73.5332 26.3573C73.5241 26.2118 73.2943 26.0299 73.1243 26.039C73.0516 26.0429 73.0035 26.0702 72.9828 26.1209L72.6725 26.6521C72.1714 26.0221 71.6937 25.7818 71.1576 25.8143C71.0122 25.8234 70.8421 25.8325 70.698 25.891C70.0074 26.1248 69.4713 26.5261 69.0922 26.9872C66.6375 28.2614 63.5544 28.0562 60.8244 27.7523L60.7153 27.7406L60.8062 27.6795C63.4908 25.8598 65.8002 23.084 66.9841 20.2511C67.7694 18.4989 67.7032 16.9662 66.7893 15.6946C64.3333 12.2772 56.3432 11.5394 52.611 11.9044C49.9602 12.1915 43.624 13.28 42.0429 17.1831C41.6132 18.5197 41.8274 20.0537 42.6011 21.1825C43.2657 22.1514 44.2679 22.7216 45.4245 22.7879C45.5076 22.7957 45.5505 22.7346 45.557 22.6723C45.5621 22.6112 45.531 22.5463 45.4466 22.5372C43.206 22.3489 42.1208 20.3291 42.2077 18.4314C42.2142 17.3936 42.7789 16.3519 43.7993 15.5011C45.8594 13.8515 48.7582 12.8591 52.6604 12.4682C56.1731 12.1447 64.0269 12.889 66.2649 16.0687C67.0477 17.1819 67.0931 18.5028 66.3999 19.9966C65.02 23.1698 62.6002 25.9442 59.7586 27.6094L59.7456 27.6172L59.7313 27.6146C58.907 27.4873 58.0775 27.2899 57.2753 27.0989C55.9499 26.7846 54.5803 26.4586 53.1913 26.4352C52.611 26.443 52.0204 26.7456 51.7205 27.1898C51.5609 27.4275 51.4103 27.8146 51.605 28.3121C51.9023 29.0577 52.6266 29.5383 53.7573 29.7409C55.7889 29.9682 58.0035 29.3967 60.161 28.09L60.1727 28.0822H60.187C63.9256 28.5875 66.7582 28.364 68.7989 27.4055C68.5133 27.89 68.3822 28.4017 68.4081 28.8342C68.4445 29.4421 68.7885 29.8864 69.4687 29.8461C69.9789 29.8162 70.6928 29.5045 71.6002 28.742C71.2588 29.5681 71.094 30.4813 71.1342 31.1632C71.1745 31.8451 71.4224 32.3179 71.9819 32.2854L72.0546 32.2815C73.7811 32.1309 77.4146 27.8367 80.1887 26.3534C80.055 27.2041 80.1083 28.1952 80.0356 28.9979C78.7076 29.6383 77.817 30.2773 77.2212 30.9242C76.4618 31.7022 76.1879 32.427 76.219 32.9621C76.258 33.6194 76.7707 34.0285 77.451 33.9883C78.5946 33.9207 80.1745 32.5803 80.6003 29.0629C82.1476 28.342 85.2229 27.3691 86.8664 26.2897C86.6924 26.5755 86.5198 26.8729 86.3471 27.1821C85.6851 28.3692 85.1399 29.4512 84.6868 30.4553C83.5418 31.3048 82.2878 32.3802 80.9235 33.6584C79.5591 34.9365 78.2766 36.3562 77.0732 37.8681C76.8019 38.2266 76.4436 38.7851 75.975 39.5203C75.5076 40.2814 75.0689 41.1127 74.7067 41.9895C74.3199 42.8675 74.1472 43.6586 74.1887 44.3652C74.2186 44.8756 74.3899 45.2809 74.7249 45.5783C75.0351 45.8771 75.435 46.0251 75.8971 45.9966C76.676 45.9498 77.4743 45.438 78.2948 44.4613C79.0918 43.5105 79.9006 42.3142 80.6704 40.901C81.4402 39.4878 82.1347 38.0304 82.8019 36.525C83.4692 35.0196 84.0235 33.6687 84.5142 32.4906C84.8556 31.6645 85.1347 31.0125 85.3489 30.5111C87.5336 28.8888 89.9573 27.3379 92.6483 25.8533C92.3043 26.3767 92.142 26.9444 92.1706 27.4185C92.2069 28.0263 92.5509 28.4706 93.2312 28.4303C93.7413 28.4004 94.4553 28.0887 95.3627 27.3262C95.0213 28.1523 94.8564 29.0655 94.8967 29.7474C94.9369 30.4293 95.1849 30.9021 95.7444 30.8696L95.8171 30.8657C95.9326 30.8553 96.0572 30.8255 96.1896 30.7813C95.9832 30.9489 95.7885 31.1294 95.6042 31.3242C95.2342 31.7269 94.9136 32.2075 94.7837 32.7686C94.5618 34.6078 95.5211 35.5197 97.1671 34.3442C97.8123 33.9285 98.3562 33.3908 98.917 32.8777C99.0105 32.7881 99.0131 32.64 98.9235 32.5478C98.8288 32.4491 98.6704 32.4543 98.5795 32.5556C97.985 33.1219 95.9936 35.3274 95.2822 34.1675C94.6552 32.8738 95.9612 31.171 97.123 30.2929L97.1256 30.2942ZM82.0347 24.3622C82.1321 24.357 82.2074 24.4011 82.2398 24.5206L82.2424 24.5687C82.2645 24.9337 81.1572 25.6104 80.8962 25.7481C80.9858 25.2051 81.6699 24.3829 82.0347 24.3622ZM59.0654 27.9913C58.1035 28.4835 57.1208 28.8511 56.1446 29.081H56.1433C55.5812 29.1927 55.0749 29.2486 54.618 29.2486C53.9105 29.2486 53.3172 29.1148 52.8032 28.8446C52.4137 28.6498 52.1152 28.2874 52.0645 27.9419C52.0295 27.7042 52.1087 27.4834 52.2956 27.3054C53.0122 26.7352 54.0221 26.9301 54.9127 27.1015C55.1385 27.1457 55.3527 27.186 55.5578 27.2145C56.4821 27.4236 57.7127 27.6925 59.055 27.9133L59.1757 27.9328L59.0667 27.9887L59.0654 27.9913ZM69.4298 29.5331C69.0896 29.5538 68.8845 29.3941 68.8651 29.0784C68.8443 28.7381 69.0118 28.264 69.4609 27.6016C69.9308 26.8898 70.5514 26.2417 71.2082 26.2027C71.6223 26.178 72.0494 26.3962 72.4518 27.008C71.3069 28.6875 70.0853 29.4928 69.4285 29.5318L69.4298 29.5331ZM77.4393 33.696C77.2446 33.7077 77.0706 33.6454 76.9174 33.5311C76.7136 33.3973 76.5812 33.2089 76.5617 32.8933C76.5384 32.5036 76.7487 31.9295 77.3874 31.184C78.0507 30.4358 79.1814 29.7578 80.0122 29.3668C79.8733 31.5489 78.509 33.6324 77.438 33.696H77.4393ZM83.7547 32.7829C83.3497 33.7843 82.8603 34.9845 82.2852 36.3873C81.7115 37.8135 81.0624 39.2202 80.364 40.6048C79.6409 41.9908 78.9062 43.1832 78.1572 44.1314C77.4081 45.0795 76.6812 45.5861 75.9763 45.629C75.6115 45.6511 75.3116 45.5459 75.0533 45.2926C74.7703 45.0406 74.6275 44.7068 74.6028 44.2937C74.5639 43.6365 74.7391 42.8935 75.1052 42.0661C75.4713 41.2387 75.8633 40.4581 76.3086 39.7229C76.7305 39.0137 77.0667 38.5058 77.316 38.198C78.3791 36.7913 79.5708 35.4755 80.8404 34.2519C82.11 33.0284 83.2705 32.0321 84.3714 31.2333C84.2195 31.5593 84.0299 32.0594 83.756 32.7842L83.7547 32.7829ZM93.1922 28.1186C92.8521 28.1393 92.647 27.9796 92.6275 27.6639C92.6068 27.3236 92.7742 26.8495 93.2234 26.1871C93.6933 25.4753 94.3138 24.8272 94.9707 24.7882C95.3848 24.7635 95.8119 24.9817 96.2143 25.5935C95.0693 27.273 93.8478 28.0783 93.1909 28.1173L93.1922 28.1186Z" fill="white"/>
<path d="M56.8533 17.7793H56.8559C57.013 17.6858 57.0987 17.5468 57.0961 17.387C57.0935 17.2169 56.9909 17.048 56.8404 16.9649C56.6989 16.8869 56.5379 16.8947 56.386 16.9883C53.8988 18.9015 52.1229 21.5786 50.4068 24.1686L50.177 24.5141C49.6461 25.3376 49.0295 26.3598 48.3765 27.4405C45.0558 32.9387 40.0385 41.2477 35.0134 42.3037C33.5102 42.6064 31.8927 41.944 30.8931 40.6152C30.8918 40.6139 30.8905 40.6126 30.8879 40.6126C30.8853 40.6126 30.884 40.6126 30.8802 40.6152C30.8724 40.6204 30.875 40.6243 30.875 40.6256C31.302 41.3296 31.9148 41.8946 32.6456 42.2596C34.659 43.1766 37.0204 42.4336 39.6621 40.0515C41.8845 38.0486 43.8603 35.304 45.1688 33.4868C45.2999 33.3037 45.4258 33.1296 45.5439 32.966C46.6344 31.4216 47.6599 29.7915 48.6517 28.2159C50.1718 25.8 51.7439 23.3009 53.5846 21.0551C54.653 19.7718 55.6357 18.6392 56.8495 17.778L56.8533 17.7793Z" fill="white"/>
<path d="M41.8287 3.74219H43.8174C44.9014 3.74219 45.7322 4.28512 45.7322 5.32554C45.7322 6.44389 44.9131 6.99852 43.7214 6.99852H42.6426V9.3742H41.83V3.74219H41.8287ZM42.6413 6.35557H43.6824C44.4146 6.35557 44.9014 6.10878 44.9014 5.33983C44.9014 4.67999 44.412 4.38254 43.6967 4.38254H42.6413V6.35427V6.35557Z" fill="white"/>
<path d="M48.9775 7.76871C49.0853 8.45842 49.5643 8.80653 50.2419 8.80653C50.9196 8.80653 51.3492 8.47401 51.3492 7.8908C51.3492 7.3076 51.0429 7.03483 50.0563 6.74258C48.814 6.38278 48.3492 5.97753 48.3492 5.16831C48.3492 4.2448 49.0775 3.66809 50.164 3.66809C51.4427 3.66809 51.9866 4.37988 52.0502 5.19689H51.2493C51.1636 4.65135 50.8482 4.29676 50.1472 4.29676C49.4955 4.29676 49.1723 4.6033 49.1723 5.09558C49.1723 5.58786 49.4734 5.79568 50.386 6.06066C51.8296 6.4815 52.184 7.02184 52.184 7.80378C52.184 8.73768 51.5219 9.43909 50.2056 9.43909C48.9866 9.43909 48.2545 8.81302 48.1727 7.77H48.9775V7.76871Z" fill="white"/>
<path d="M56.1627 9.37286V7.16993C56.1627 7.11408 56.1445 7.05173 56.1173 7.01276L54.235 3.74084H55.1528C55.624 4.6189 56.3626 5.93988 56.6067 6.39969C57.0429 5.58917 57.6089 4.58123 58.0645 3.74084H58.9187L57.0091 7.02056C56.9806 7.05953 56.9728 7.10109 56.9728 7.16473V9.37286H56.164H56.1627Z" fill="white"/>
<path d="M65.2497 7.70895C65.0797 8.61558 64.4631 9.45466 63.0728 9.45466C61.3449 9.45466 60.6959 8.19474 60.6959 6.52565C60.6959 5.02283 61.4553 3.66418 63.1143 3.66418C64.4955 3.66418 65.1186 4.48638 65.2199 5.42029H64.4137C64.2722 4.79812 63.9399 4.31883 63.0857 4.31883C61.9732 4.31883 61.5332 5.37223 61.5332 6.52695C61.5332 7.68167 61.894 8.80522 63.0935 8.80522C63.9412 8.80522 64.2774 8.30514 64.4436 7.71025H65.2497V7.70895Z" fill="white"/>
<path d="M67.2579 3.74219H68.0667V6.0841H70.6707V3.74219H71.4834V9.3742H70.6707V6.75303H68.0667V9.3742H67.2579V3.74219Z" fill="white"/>
<path d="M78.2467 6.52435C78.2467 8.14278 77.4639 9.45466 75.7361 9.45466C74.0083 9.45466 73.2917 8.19603 73.2917 6.52565C73.2917 5.06699 74.081 3.66418 75.8062 3.66418C77.4392 3.66418 78.2454 4.92151 78.2454 6.52435H78.2467ZM74.1329 6.51526C74.1329 7.79987 74.6677 8.80392 75.7776 8.80392C76.8875 8.80392 77.4185 7.82325 77.4185 6.52825C77.4185 5.23325 76.9278 4.31363 75.7763 4.31363C74.6249 4.31363 74.1342 5.29949 74.1342 6.51526H74.1329Z" fill="white"/>
<path d="M80.3821 3.74219H81.1909V8.71306H83.952L83.8443 9.3742H80.3821V3.74219Z" fill="white"/>
<path d="M91.0425 6.52435C91.0425 8.14278 90.2597 9.45466 88.5319 9.45466C86.804 9.45466 86.0875 8.19603 86.0875 6.52565C86.0875 5.06699 86.8767 3.66418 88.602 3.66418C90.235 3.66418 91.0412 4.92151 91.0412 6.52435H91.0425ZM86.93 6.51526C86.93 7.79987 87.4648 8.80392 88.5747 8.80392C89.6846 8.80392 90.2156 7.82325 90.2156 6.52825C90.2156 5.23325 89.7248 4.31363 88.5734 4.31363C87.4219 4.31363 86.9313 5.29949 86.9313 6.51526H86.93Z" fill="white"/>
<path d="M97.2801 9.37279H96.6609C96.6284 9.20783 96.6037 8.96364 96.5908 8.59086C96.2857 9.21952 95.7132 9.45462 94.9032 9.45462C93.3844 9.45462 92.634 8.20119 92.634 6.58536C92.634 4.96953 93.5233 3.66284 95.1654 3.66284C96.4272 3.66284 97.1256 4.32398 97.2931 5.30465H96.496C96.3337 4.74353 95.9677 4.31749 95.1265 4.31749C93.962 4.31749 93.4713 5.33062 93.4713 6.58926C93.4713 7.76995 93.94 8.80388 95.0564 8.80388C96.2325 8.80388 96.4804 8.01414 96.4804 7.03478V7.00101H95.0291V6.31649H97.2801V9.37279Z" fill="white"/>
</svg>
